M48
; DRILL file {KiCad 8.0.3} date 2024-06-19T21:53:44+0900
; FORMAT={-:-/ absolute / metric / decimal}
; #@! TF.CreationDate,2024-06-19T21:53:44+09:00
; #@! TF.GenerationSoftware,Kicad,Pcbnew,8.0.3
; #@! TF.FileFunction,MixedPlating,1,2
FMAT,2
METRIC
; #@! TA.AperFunction,Plated,PTH,ViaDrill
T1C0.300
; #@! TA.AperFunction,Plated,PTH,ComponentDrill
T2C0.787
; #@! TA.AperFunction,Plated,PTH,ComponentDrill
T3C0.800
; #@! TA.AperFunction,Plated,PTH,ComponentDrill
T4C1.000
%
G90
G05
T1
X1.27Y56.515
X1.27Y43.815
X1.27Y23.495
X1.27Y13.335
X1.27Y1.27
X5.715Y48.895
X5.715Y43.815
X5.715Y36.195
X5.715Y10.795
X6.35Y29.21
X6.35Y25.4
X6.35Y19.685
X10.795Y29.21
X10.795Y25.4
X10.795Y21.59
X15.875Y48.895
X15.875Y34.29
X19.685Y48.895
X19.685Y34.29
X20.32Y56.515
X21.59Y17.145
X22.225Y51.435
X22.225Y48.895
X22.225Y43.815
X22.225Y36.195
X22.225Y27.305
X22.225Y12.065
X22.225Y6.985
X26.035Y48.895
X26.035Y46.355
X26.035Y41.275
X26.035Y20.955
X26.035Y17.145
X26.035Y14.605
X26.67Y1.27
X27.305Y26.035
X27.305Y9.144
X27.94Y56.515
X29.21Y43.815
X29.21Y27.94
X29.21Y24.13
X31.115Y26.035
X33.655Y17.145
X33.655Y14.605
X33.655Y12.065
X34.065Y46.251
X34.29Y36.195
X34.671Y45.72
X34.672Y46.782
X36.83Y56.515
X38.1Y46.355
X38.1Y31.115
X38.1Y26.035
X40.64Y23.495
X43.18Y28.575
X43.18Y26.035
X43.815Y33.02
X45.72Y46.355
X45.72Y41.275
X46.99Y27.178
X46.99Y21.59
X50.8Y38.735
X52.07Y56.515
X52.07Y33.02
X52.07Y20.955
X52.07Y9.525
X55.88Y46.355
X58.42Y13.335
X59.69Y33.02
X60.325Y27.305
X60.325Y20.955
X62.23Y46.355
X62.23Y24.765
X63.5Y38.735
X63.5Y13.335
X71.755Y56.515
X71.755Y42.545
X71.755Y19.685
X71.755Y9.525
T2
X36.83Y42.545
X36.83Y40.005
X36.83Y37.465
X36.83Y34.925
X36.83Y32.385
X36.83Y29.845
X36.83Y27.305
X36.83Y24.765
X36.83Y22.225
X36.83Y19.685
X36.83Y17.145
X36.83Y14.605
X36.83Y12.065
X39.37Y42.545
X39.37Y40.005
X39.37Y37.465
X39.37Y34.925
X39.37Y32.385
X39.37Y29.845
X39.37Y27.305
X39.37Y24.765
X39.37Y22.225
X39.37Y19.685
X39.37Y17.145
X39.37Y14.605
X39.37Y12.065
X41.91Y42.545
X41.91Y40.005
X41.91Y37.465
X41.91Y34.925
X41.91Y32.385
X41.91Y29.845
X41.91Y27.305
X41.91Y24.765
X41.91Y22.225
X41.91Y19.685
X41.91Y17.145
X41.91Y14.605
X41.91Y12.065
X44.45Y42.545
X44.45Y40.005
X44.45Y37.465
X44.45Y17.145
X44.45Y14.605
X44.45Y12.065
X46.99Y42.545
X46.99Y40.005
X46.99Y37.465
X46.99Y17.145
X46.99Y14.605
X46.99Y12.065
X49.53Y42.545
X49.53Y40.005
X49.53Y37.465
X49.53Y17.145
X49.53Y14.605
X49.53Y12.065
X52.07Y42.545
X52.07Y40.005
X52.07Y37.465
X52.07Y17.145
X52.07Y14.605
X52.07Y12.065
X54.61Y42.545
X54.61Y40.005
X54.61Y37.465
X54.61Y17.145
X54.61Y14.605
X54.61Y12.065
X57.15Y42.545
X57.15Y40.005
X57.15Y37.465
X57.15Y17.145
X57.15Y14.605
X57.15Y12.065
X59.69Y42.545
X59.69Y40.005
X59.69Y37.465
X59.69Y17.145
X59.69Y14.605
X59.69Y12.065
X62.23Y42.545
X62.23Y40.005
X62.23Y37.465
X62.23Y27.305
X62.23Y17.145
X62.23Y14.605
X62.23Y12.065
X64.77Y42.545
X64.77Y40.005
X64.77Y37.465
X64.77Y34.925
X64.77Y32.385
X64.77Y29.845
X64.77Y27.305
X64.77Y24.765
X64.77Y22.225
X64.77Y19.685
X64.77Y17.145
X64.77Y14.605
X64.77Y12.065
X67.31Y42.545
X67.31Y40.005
X67.31Y37.465
X67.31Y34.925
X67.31Y32.385
X67.31Y29.845
X67.31Y27.305
X67.31Y24.765
X67.31Y22.225
X67.31Y19.685
X67.31Y17.145
X67.31Y14.605
X67.31Y12.065
T3
X29.162Y34.925
X31.662Y34.925
X33.655Y29.825
X33.655Y27.325
X70.485Y29.805
X70.485Y27.305
T4
X3.81Y52.705
X3.81Y50.165
X3.81Y47.625
X3.81Y45.085
X3.81Y42.545
X3.81Y40.005
X3.81Y37.465
X3.81Y34.925
X3.81Y32.385
X3.81Y29.845
X3.81Y27.305
X3.81Y24.765
X3.81Y22.225
X3.81Y19.685
X3.81Y17.145
X3.81Y14.605
X3.81Y12.065
X3.81Y9.525
X3.81Y6.985
X3.81Y4.445
X24.13Y52.705
X24.13Y50.165
X24.13Y47.625
X24.13Y45.085
X24.13Y42.545
X24.13Y40.005
X24.13Y37.465
X24.13Y34.925
X24.13Y32.385
X24.13Y29.845
X24.13Y27.305
X24.13Y24.765
X24.13Y22.225
X24.13Y19.685
X24.13Y17.145
X24.13Y14.605
X24.13Y12.065
X24.13Y9.525
X24.13Y6.985
X24.13Y4.445
M30
