G04 #@! TF.GenerationSoftware,KiCad,Pcbnew,8.0.3*
G04 #@! TF.CreationDate,2024-06-19T21:53:35+09:00*
G04 #@! TF.ProjectId,MEZ68020,4d455a36-3830-4323-902e-6b696361645f,A*
G04 #@! TF.SameCoordinates,PX5f5e100PY8f0d180*
G04 #@! TF.FileFunction,Soldermask,Bot*
G04 #@! TF.FilePolarity,Negative*
%FSLAX46Y46*%
G04 Gerber Fmt 4.6, Leading zero omitted, Abs format (unit mm)*
G04 Created by KiCad (PCBNEW 8.0.3) date 2024-06-19 21:53:35*
%MOMM*%
%LPD*%
G01*
G04 APERTURE LIST*
%ADD10R,1.397000X1.397000*%
%ADD11C,1.397000*%
%ADD12R,1.600000X1.600000*%
%ADD13C,1.600000*%
%ADD14R,1.700000X1.700000*%
%ADD15O,1.700000X1.700000*%
%ADD16C,0.605000*%
G04 APERTURE END LIST*
D10*
X36830000Y42545000D03*
D11*
X39370000Y42545000D03*
X41910000Y42545000D03*
X44450000Y42545000D03*
X46990000Y42545000D03*
X49530000Y42545000D03*
X52070000Y42545000D03*
X54610000Y42545000D03*
X57150000Y42545000D03*
X59690000Y42545000D03*
X62230000Y42545000D03*
X64770000Y42545000D03*
X67310000Y42545000D03*
X36830000Y40005000D03*
X39370000Y40005000D03*
X41910000Y40005000D03*
X44450000Y40005000D03*
X46990000Y40005000D03*
X49530000Y40005000D03*
X52070000Y40005000D03*
X54610000Y40005000D03*
X57150000Y40005000D03*
X59690000Y40005000D03*
X62230000Y40005000D03*
X64770000Y40005000D03*
X67310000Y40005000D03*
X36830000Y37465000D03*
X39370000Y37465000D03*
X41910000Y37465000D03*
X44450000Y37465000D03*
X46990000Y37465000D03*
X49530000Y37465000D03*
X52070000Y37465000D03*
X54610000Y37465000D03*
X57150000Y37465000D03*
X59690000Y37465000D03*
X62230000Y37465000D03*
X64770000Y37465000D03*
X67310000Y37465000D03*
X36830000Y34925000D03*
X39370000Y34925000D03*
X41910000Y34925000D03*
X64770000Y34925000D03*
X67310000Y34925000D03*
X36830000Y32385000D03*
X39370000Y32385000D03*
X41910000Y32385000D03*
X64770000Y32385000D03*
X67310000Y32385000D03*
X36830000Y29845000D03*
X39370000Y29845000D03*
X41910000Y29845000D03*
X64770000Y29845000D03*
X67310000Y29845000D03*
X36830000Y27305000D03*
X39370000Y27305000D03*
X41910000Y27305000D03*
X62230000Y27305000D03*
X64770000Y27305000D03*
X67310000Y27305000D03*
X36830000Y24765000D03*
X39370000Y24765000D03*
X41910000Y24765000D03*
X64770000Y24765000D03*
X67310000Y24765000D03*
X36830000Y22225000D03*
X39370000Y22225000D03*
X41910000Y22225000D03*
X64770000Y22225000D03*
X67310000Y22225000D03*
X36830000Y19685000D03*
X39370000Y19685000D03*
X41910000Y19685000D03*
X64770000Y19685000D03*
X67310000Y19685000D03*
X36830000Y17145000D03*
X39370000Y17145000D03*
X41910000Y17145000D03*
X44450000Y17145000D03*
X46990000Y17145000D03*
X49530000Y17145000D03*
X52070000Y17145000D03*
X54610000Y17145000D03*
X57150000Y17145000D03*
X59690000Y17145000D03*
X62230000Y17145000D03*
X64770000Y17145000D03*
X67310000Y17145000D03*
X36830000Y14605000D03*
X39370000Y14605000D03*
X41910000Y14605000D03*
X44450000Y14605000D03*
X46990000Y14605000D03*
X49530000Y14605000D03*
X52070000Y14605000D03*
X54610000Y14605000D03*
X57150000Y14605000D03*
X59690000Y14605000D03*
X62230000Y14605000D03*
X64770000Y14605000D03*
X67310000Y14605000D03*
X36830000Y12065000D03*
X39370000Y12065000D03*
X41910000Y12065000D03*
X44450000Y12065000D03*
X46990000Y12065000D03*
X49530000Y12065000D03*
X52070000Y12065000D03*
X54610000Y12065000D03*
X57150000Y12065000D03*
X59690000Y12065000D03*
X62230000Y12065000D03*
X64770000Y12065000D03*
X67310000Y12065000D03*
D12*
X31662400Y34925000D03*
D13*
X29162400Y34925000D03*
X70485000Y27305000D03*
X70485000Y29805000D03*
X33655000Y29825000D03*
X33655000Y27325000D03*
D14*
X3810000Y52705000D03*
D15*
X3810000Y50165000D03*
X3810000Y47625000D03*
X3810000Y45085000D03*
X3810000Y42545000D03*
X3810000Y40005000D03*
X3810000Y37465000D03*
X3810000Y34925000D03*
X3810000Y32385000D03*
X3810000Y29845000D03*
X3810000Y27305000D03*
X3810000Y24765000D03*
X3810000Y22225000D03*
X3810000Y19685000D03*
X3810000Y17145000D03*
X3810000Y14605000D03*
X3810000Y12065000D03*
X3810000Y9525000D03*
X3810000Y6985000D03*
X3810000Y4445000D03*
D14*
X24130000Y52705000D03*
D15*
X24130000Y50165000D03*
X24130000Y47625000D03*
X24130000Y45085000D03*
X24130000Y42545000D03*
X24130000Y40005000D03*
X24130000Y37465000D03*
X24130000Y34925000D03*
X24130000Y32385000D03*
X24130000Y29845000D03*
X24130000Y27305000D03*
X24130000Y24765000D03*
X24130000Y22225000D03*
X24130000Y19685000D03*
X24130000Y17145000D03*
X24130000Y14605000D03*
X24130000Y12065000D03*
X24130000Y9525000D03*
X24130000Y6985000D03*
X24130000Y4445000D03*
D16*
X33655000Y17145000D03*
X26035000Y17145000D03*
X10795000Y21590000D03*
X71755000Y19685000D03*
X50800000Y38735000D03*
X22225000Y48895000D03*
X22225000Y12065000D03*
X60325000Y20955000D03*
X38100000Y26035000D03*
X1270000Y23495000D03*
X15875000Y48895000D03*
X71755000Y42545000D03*
X26035000Y41275000D03*
X38100000Y31115000D03*
X22225000Y6985000D03*
X21590000Y17145000D03*
X63500000Y13335000D03*
X22225000Y43815000D03*
X10795000Y25400000D03*
X6350000Y29210000D03*
X5715000Y36195000D03*
X45720000Y46355000D03*
X33655000Y14605000D03*
X36830000Y56515000D03*
X71755000Y56515000D03*
X26035000Y48895000D03*
X62230000Y46355000D03*
X15875000Y34290000D03*
X26670000Y1270000D03*
X6350000Y19685000D03*
X19685000Y48895000D03*
X1270000Y56515000D03*
X31115000Y26035000D03*
X29210000Y43815000D03*
X1270000Y13335000D03*
X43815000Y33020000D03*
X1270000Y43815000D03*
X46990000Y21590000D03*
X52070000Y33020000D03*
X22225000Y36195000D03*
X58420000Y13335000D03*
X40640000Y23495000D03*
X52070000Y56515000D03*
X26035000Y20955000D03*
X55880000Y46355000D03*
X34290000Y36195000D03*
X26035000Y46355000D03*
X5715000Y10795000D03*
X6350000Y25400000D03*
X45720000Y41275000D03*
X22225000Y51435000D03*
X26035000Y14605000D03*
X10795000Y29210000D03*
X63500000Y38735000D03*
X33655000Y12065000D03*
X59690000Y33020000D03*
X46990000Y27178000D03*
X29210000Y27940000D03*
X5715000Y48895000D03*
X60325000Y27305000D03*
X43180000Y26035000D03*
X43180000Y28575000D03*
X22225000Y27305000D03*
X19685000Y34290000D03*
X52070000Y9525000D03*
X29210000Y24130000D03*
X52070000Y20955000D03*
X1270000Y1270000D03*
X62230000Y24765000D03*
X20320000Y56515000D03*
X71755000Y9525000D03*
X27305000Y26035000D03*
X5715000Y43815000D03*
X38100000Y46355000D03*
X27940000Y56515000D03*
X27305000Y9144000D03*
X34671785Y46782200D03*
X34065078Y46251100D03*
X34671000Y45720000D03*
M02*
