G04 #@! TF.GenerationSoftware,KiCad,Pcbnew,8.0.3*
G04 #@! TF.CreationDate,2024-06-19T21:53:35+09:00*
G04 #@! TF.ProjectId,MEZ68020,4d455a36-3830-4323-902e-6b696361645f,A*
G04 #@! TF.SameCoordinates,PX5f5e100PY8f0d180*
G04 #@! TF.FileFunction,Legend,Top*
G04 #@! TF.FilePolarity,Positive*
%FSLAX46Y46*%
G04 Gerber Fmt 4.6, Leading zero omitted, Abs format (unit mm)*
G04 Created by KiCad (PCBNEW 8.0.3) date 2024-06-19 21:53:35*
%MOMM*%
%LPD*%
G01*
G04 APERTURE LIST*
%ADD10C,0.150000*%
%ADD11C,0.200000*%
%ADD12C,0.125000*%
%ADD13C,0.203200*%
%ADD14C,0.304800*%
%ADD15C,0.120000*%
%ADD16R,1.397000X1.397000*%
%ADD17C,1.397000*%
G04 APERTURE END LIST*
D10*
X56515000Y41275000D02*
X57785000Y41275000D01*
X41275000Y18415000D02*
X42545000Y18415000D01*
X38735000Y10160000D02*
X40005000Y10160000D01*
X64135000Y20955000D02*
X65405000Y20955000D01*
X61595000Y26035000D02*
X62865000Y26035000D01*
X61595000Y41275000D02*
X62865000Y41275000D01*
X38735000Y36195000D02*
X40005000Y36195000D01*
X64135000Y28575000D02*
X65405000Y28575000D01*
X66675000Y20955000D02*
X67945000Y20955000D01*
X41275000Y13335000D02*
X42545000Y13335000D01*
X38735000Y15875000D02*
X40005000Y15875000D01*
X64135000Y38735000D02*
X65405000Y38735000D01*
X64135000Y41275000D02*
X65405000Y41275000D01*
X51435000Y15875000D02*
X52705000Y15875000D01*
X36195000Y23495000D02*
X37465000Y23495000D01*
X66675000Y41275000D02*
X67945000Y41275000D01*
X59055000Y41275000D02*
X60325000Y41275000D01*
X61595000Y36195000D02*
X62865000Y36195000D01*
X36195000Y36195000D02*
X37465000Y36195000D01*
X38735000Y18415000D02*
X40005000Y18415000D01*
X61595000Y38735000D02*
X62865000Y38735000D01*
X43815000Y13335000D02*
X45085000Y13335000D01*
X41275000Y15875000D02*
X42545000Y15875000D01*
X53975000Y13335000D02*
X55245000Y13335000D01*
X53975000Y10160000D02*
X55245000Y10160000D01*
X41275000Y38735000D02*
X42545000Y38735000D01*
X51435000Y10160000D02*
X52705000Y10160000D01*
X38735000Y33655000D02*
X40005000Y33655000D01*
X36195000Y20955000D02*
X37465000Y20955000D01*
X38735000Y41275000D02*
X40005000Y41275000D01*
X38735000Y13335000D02*
X40005000Y13335000D01*
X64135000Y23495000D02*
X65405000Y23495000D01*
X64135000Y31115000D02*
X65405000Y31115000D01*
X41275000Y33655000D02*
X42545000Y33655000D01*
X41275000Y20955000D02*
X42545000Y20955000D01*
X36195000Y10160000D02*
X37465000Y10160000D01*
X59055000Y38735000D02*
X60325000Y38735000D01*
X41275000Y10160000D02*
X42545000Y10160000D01*
X66675000Y38735000D02*
X67945000Y38735000D01*
X66675000Y10160000D02*
X67945000Y10160000D01*
X66675000Y36195000D02*
X67945000Y36195000D01*
X36195000Y15875000D02*
X37465000Y15875000D01*
X56515000Y38735000D02*
X57785000Y38735000D01*
X41275000Y36195000D02*
X42545000Y36195000D01*
X36195000Y41275000D02*
X37465000Y41275000D01*
X64135000Y33655000D02*
X65405000Y33655000D01*
X36195000Y18415000D02*
X37465000Y18415000D01*
X43815000Y15875000D02*
X45085000Y15875000D01*
X38735000Y23495000D02*
X40005000Y23495000D01*
X36195000Y33655000D02*
X37465000Y33655000D01*
X43815000Y36195000D02*
X45085000Y36195000D01*
X59055000Y36195000D02*
X60325000Y36195000D01*
X64135000Y36195000D02*
X65405000Y36195000D01*
X66675000Y23495000D02*
X67945000Y23495000D01*
X36195000Y13335000D02*
X37465000Y13335000D01*
X41275000Y23495000D02*
X42545000Y23495000D01*
X38735000Y20955000D02*
X40005000Y20955000D01*
X41275000Y31115000D02*
X42545000Y31115000D01*
X61595000Y15875000D02*
X62865000Y15875000D01*
X36195000Y38735000D02*
X37465000Y38735000D01*
X15875000Y57404000D02*
G75*
G02*
X12065000Y57404000I-1905000J0D01*
G01*
X64135000Y26035000D02*
X65405000Y26035000D01*
X66675000Y33655000D02*
X67945000Y33655000D01*
X66675000Y26035000D02*
X67945000Y26035000D01*
X508095Y4894943D02*
X555714Y4942562D01*
X555714Y4942562D02*
X650952Y4990181D01*
X650952Y4990181D02*
X889047Y4990181D01*
X889047Y4990181D02*
X984285Y4942562D01*
X984285Y4942562D02*
X1031904Y4894943D01*
X1031904Y4894943D02*
X1079523Y4799705D01*
X1079523Y4799705D02*
X1079523Y4704467D01*
X1079523Y4704467D02*
X1031904Y4561610D01*
X1031904Y4561610D02*
X460476Y3990181D01*
X460476Y3990181D02*
X1079523Y3990181D01*
X1698571Y4990181D02*
X1793809Y4990181D01*
X1793809Y4990181D02*
X1889047Y4942562D01*
X1889047Y4942562D02*
X1936666Y4894943D01*
X1936666Y4894943D02*
X1984285Y4799705D01*
X1984285Y4799705D02*
X2031904Y4609229D01*
X2031904Y4609229D02*
X2031904Y4371134D01*
X2031904Y4371134D02*
X1984285Y4180658D01*
X1984285Y4180658D02*
X1936666Y4085420D01*
X1936666Y4085420D02*
X1889047Y4037800D01*
X1889047Y4037800D02*
X1793809Y3990181D01*
X1793809Y3990181D02*
X1698571Y3990181D01*
X1698571Y3990181D02*
X1603333Y4037800D01*
X1603333Y4037800D02*
X1555714Y4085420D01*
X1555714Y4085420D02*
X1508095Y4180658D01*
X1508095Y4180658D02*
X1460476Y4371134D01*
X1460476Y4371134D02*
X1460476Y4609229D01*
X1460476Y4609229D02*
X1508095Y4799705D01*
X1508095Y4799705D02*
X1555714Y4894943D01*
X1555714Y4894943D02*
X1603333Y4942562D01*
X1603333Y4942562D02*
X1698571Y4990181D01*
X26384285Y52916848D02*
X26384285Y52250181D01*
X26146190Y53297800D02*
X25908095Y52583515D01*
X25908095Y52583515D02*
X26527142Y52583515D01*
X27098571Y53250181D02*
X27193809Y53250181D01*
X27193809Y53250181D02*
X27289047Y53202562D01*
X27289047Y53202562D02*
X27336666Y53154943D01*
X27336666Y53154943D02*
X27384285Y53059705D01*
X27384285Y53059705D02*
X27431904Y52869229D01*
X27431904Y52869229D02*
X27431904Y52631134D01*
X27431904Y52631134D02*
X27384285Y52440658D01*
X27384285Y52440658D02*
X27336666Y52345420D01*
X27336666Y52345420D02*
X27289047Y52297800D01*
X27289047Y52297800D02*
X27193809Y52250181D01*
X27193809Y52250181D02*
X27098571Y52250181D01*
X27098571Y52250181D02*
X27003333Y52297800D01*
X27003333Y52297800D02*
X26955714Y52345420D01*
X26955714Y52345420D02*
X26908095Y52440658D01*
X26908095Y52440658D02*
X26860476Y52631134D01*
X26860476Y52631134D02*
X26860476Y52869229D01*
X26860476Y52869229D02*
X26908095Y53059705D01*
X26908095Y53059705D02*
X26955714Y53154943D01*
X26955714Y53154943D02*
X27003333Y53202562D01*
X27003333Y53202562D02*
X27098571Y53250181D01*
X25908095Y4894943D02*
X25955714Y4942562D01*
X25955714Y4942562D02*
X26050952Y4990181D01*
X26050952Y4990181D02*
X26289047Y4990181D01*
X26289047Y4990181D02*
X26384285Y4942562D01*
X26384285Y4942562D02*
X26431904Y4894943D01*
X26431904Y4894943D02*
X26479523Y4799705D01*
X26479523Y4799705D02*
X26479523Y4704467D01*
X26479523Y4704467D02*
X26431904Y4561610D01*
X26431904Y4561610D02*
X25860476Y3990181D01*
X25860476Y3990181D02*
X26479523Y3990181D01*
X27431904Y3990181D02*
X26860476Y3990181D01*
X27146190Y3990181D02*
X27146190Y4990181D01*
X27146190Y4990181D02*
X27050952Y4847324D01*
X27050952Y4847324D02*
X26955714Y4752086D01*
X26955714Y4752086D02*
X26860476Y4704467D01*
D11*
X47698572Y52160258D02*
X47698572Y53360258D01*
X47698572Y53360258D02*
X48098572Y52503115D01*
X48098572Y52503115D02*
X48498572Y53360258D01*
X48498572Y53360258D02*
X48498572Y52160258D01*
X49070001Y52788829D02*
X49470001Y52788829D01*
X49641429Y52160258D02*
X49070001Y52160258D01*
X49070001Y52160258D02*
X49070001Y53360258D01*
X49070001Y53360258D02*
X49641429Y53360258D01*
X50041429Y53360258D02*
X50841429Y53360258D01*
X50841429Y53360258D02*
X50041429Y52160258D01*
X50041429Y52160258D02*
X50841429Y52160258D01*
X51812858Y53360258D02*
X51584286Y53360258D01*
X51584286Y53360258D02*
X51470000Y53303115D01*
X51470000Y53303115D02*
X51412858Y53245972D01*
X51412858Y53245972D02*
X51298572Y53074543D01*
X51298572Y53074543D02*
X51241429Y52845972D01*
X51241429Y52845972D02*
X51241429Y52388829D01*
X51241429Y52388829D02*
X51298572Y52274543D01*
X51298572Y52274543D02*
X51355715Y52217400D01*
X51355715Y52217400D02*
X51470000Y52160258D01*
X51470000Y52160258D02*
X51698572Y52160258D01*
X51698572Y52160258D02*
X51812858Y52217400D01*
X51812858Y52217400D02*
X51870000Y52274543D01*
X51870000Y52274543D02*
X51927143Y52388829D01*
X51927143Y52388829D02*
X51927143Y52674543D01*
X51927143Y52674543D02*
X51870000Y52788829D01*
X51870000Y52788829D02*
X51812858Y52845972D01*
X51812858Y52845972D02*
X51698572Y52903115D01*
X51698572Y52903115D02*
X51470000Y52903115D01*
X51470000Y52903115D02*
X51355715Y52845972D01*
X51355715Y52845972D02*
X51298572Y52788829D01*
X51298572Y52788829D02*
X51241429Y52674543D01*
X52612857Y52845972D02*
X52498572Y52903115D01*
X52498572Y52903115D02*
X52441429Y52960258D01*
X52441429Y52960258D02*
X52384286Y53074543D01*
X52384286Y53074543D02*
X52384286Y53131686D01*
X52384286Y53131686D02*
X52441429Y53245972D01*
X52441429Y53245972D02*
X52498572Y53303115D01*
X52498572Y53303115D02*
X52612857Y53360258D01*
X52612857Y53360258D02*
X52841429Y53360258D01*
X52841429Y53360258D02*
X52955715Y53303115D01*
X52955715Y53303115D02*
X53012857Y53245972D01*
X53012857Y53245972D02*
X53070000Y53131686D01*
X53070000Y53131686D02*
X53070000Y53074543D01*
X53070000Y53074543D02*
X53012857Y52960258D01*
X53012857Y52960258D02*
X52955715Y52903115D01*
X52955715Y52903115D02*
X52841429Y52845972D01*
X52841429Y52845972D02*
X52612857Y52845972D01*
X52612857Y52845972D02*
X52498572Y52788829D01*
X52498572Y52788829D02*
X52441429Y52731686D01*
X52441429Y52731686D02*
X52384286Y52617400D01*
X52384286Y52617400D02*
X52384286Y52388829D01*
X52384286Y52388829D02*
X52441429Y52274543D01*
X52441429Y52274543D02*
X52498572Y52217400D01*
X52498572Y52217400D02*
X52612857Y52160258D01*
X52612857Y52160258D02*
X52841429Y52160258D01*
X52841429Y52160258D02*
X52955715Y52217400D01*
X52955715Y52217400D02*
X53012857Y52274543D01*
X53012857Y52274543D02*
X53070000Y52388829D01*
X53070000Y52388829D02*
X53070000Y52617400D01*
X53070000Y52617400D02*
X53012857Y52731686D01*
X53012857Y52731686D02*
X52955715Y52788829D01*
X52955715Y52788829D02*
X52841429Y52845972D01*
X53812857Y53360258D02*
X53927143Y53360258D01*
X53927143Y53360258D02*
X54041429Y53303115D01*
X54041429Y53303115D02*
X54098572Y53245972D01*
X54098572Y53245972D02*
X54155714Y53131686D01*
X54155714Y53131686D02*
X54212857Y52903115D01*
X54212857Y52903115D02*
X54212857Y52617400D01*
X54212857Y52617400D02*
X54155714Y52388829D01*
X54155714Y52388829D02*
X54098572Y52274543D01*
X54098572Y52274543D02*
X54041429Y52217400D01*
X54041429Y52217400D02*
X53927143Y52160258D01*
X53927143Y52160258D02*
X53812857Y52160258D01*
X53812857Y52160258D02*
X53698572Y52217400D01*
X53698572Y52217400D02*
X53641429Y52274543D01*
X53641429Y52274543D02*
X53584286Y52388829D01*
X53584286Y52388829D02*
X53527143Y52617400D01*
X53527143Y52617400D02*
X53527143Y52903115D01*
X53527143Y52903115D02*
X53584286Y53131686D01*
X53584286Y53131686D02*
X53641429Y53245972D01*
X53641429Y53245972D02*
X53698572Y53303115D01*
X53698572Y53303115D02*
X53812857Y53360258D01*
X54670000Y53245972D02*
X54727143Y53303115D01*
X54727143Y53303115D02*
X54841429Y53360258D01*
X54841429Y53360258D02*
X55127143Y53360258D01*
X55127143Y53360258D02*
X55241429Y53303115D01*
X55241429Y53303115D02*
X55298571Y53245972D01*
X55298571Y53245972D02*
X55355714Y53131686D01*
X55355714Y53131686D02*
X55355714Y53017400D01*
X55355714Y53017400D02*
X55298571Y52845972D01*
X55298571Y52845972D02*
X54612857Y52160258D01*
X54612857Y52160258D02*
X55355714Y52160258D01*
X56098571Y53360258D02*
X56212857Y53360258D01*
X56212857Y53360258D02*
X56327143Y53303115D01*
X56327143Y53303115D02*
X56384286Y53245972D01*
X56384286Y53245972D02*
X56441428Y53131686D01*
X56441428Y53131686D02*
X56498571Y52903115D01*
X56498571Y52903115D02*
X56498571Y52617400D01*
X56498571Y52617400D02*
X56441428Y52388829D01*
X56441428Y52388829D02*
X56384286Y52274543D01*
X56384286Y52274543D02*
X56327143Y52217400D01*
X56327143Y52217400D02*
X56212857Y52160258D01*
X56212857Y52160258D02*
X56098571Y52160258D01*
X56098571Y52160258D02*
X55984286Y52217400D01*
X55984286Y52217400D02*
X55927143Y52274543D01*
X55927143Y52274543D02*
X55870000Y52388829D01*
X55870000Y52388829D02*
X55812857Y52617400D01*
X55812857Y52617400D02*
X55812857Y52903115D01*
X55812857Y52903115D02*
X55870000Y53131686D01*
X55870000Y53131686D02*
X55927143Y53245972D01*
X55927143Y53245972D02*
X55984286Y53303115D01*
X55984286Y53303115D02*
X56098571Y53360258D01*
D10*
X48855714Y27485181D02*
X48855714Y28485181D01*
X48855714Y28485181D02*
X49189047Y27770896D01*
X49189047Y27770896D02*
X49522380Y28485181D01*
X49522380Y28485181D02*
X49522380Y27485181D01*
X50569999Y27580420D02*
X50522380Y27532800D01*
X50522380Y27532800D02*
X50379523Y27485181D01*
X50379523Y27485181D02*
X50284285Y27485181D01*
X50284285Y27485181D02*
X50141428Y27532800D01*
X50141428Y27532800D02*
X50046190Y27628039D01*
X50046190Y27628039D02*
X49998571Y27723277D01*
X49998571Y27723277D02*
X49950952Y27913753D01*
X49950952Y27913753D02*
X49950952Y28056610D01*
X49950952Y28056610D02*
X49998571Y28247086D01*
X49998571Y28247086D02*
X50046190Y28342324D01*
X50046190Y28342324D02*
X50141428Y28437562D01*
X50141428Y28437562D02*
X50284285Y28485181D01*
X50284285Y28485181D02*
X50379523Y28485181D01*
X50379523Y28485181D02*
X50522380Y28437562D01*
X50522380Y28437562D02*
X50569999Y28389943D01*
X51427142Y28485181D02*
X51236666Y28485181D01*
X51236666Y28485181D02*
X51141428Y28437562D01*
X51141428Y28437562D02*
X51093809Y28389943D01*
X51093809Y28389943D02*
X50998571Y28247086D01*
X50998571Y28247086D02*
X50950952Y28056610D01*
X50950952Y28056610D02*
X50950952Y27675658D01*
X50950952Y27675658D02*
X50998571Y27580420D01*
X50998571Y27580420D02*
X51046190Y27532800D01*
X51046190Y27532800D02*
X51141428Y27485181D01*
X51141428Y27485181D02*
X51331904Y27485181D01*
X51331904Y27485181D02*
X51427142Y27532800D01*
X51427142Y27532800D02*
X51474761Y27580420D01*
X51474761Y27580420D02*
X51522380Y27675658D01*
X51522380Y27675658D02*
X51522380Y27913753D01*
X51522380Y27913753D02*
X51474761Y28008991D01*
X51474761Y28008991D02*
X51427142Y28056610D01*
X51427142Y28056610D02*
X51331904Y28104229D01*
X51331904Y28104229D02*
X51141428Y28104229D01*
X51141428Y28104229D02*
X51046190Y28056610D01*
X51046190Y28056610D02*
X50998571Y28008991D01*
X50998571Y28008991D02*
X50950952Y27913753D01*
X52093809Y28056610D02*
X51998571Y28104229D01*
X51998571Y28104229D02*
X51950952Y28151848D01*
X51950952Y28151848D02*
X51903333Y28247086D01*
X51903333Y28247086D02*
X51903333Y28294705D01*
X51903333Y28294705D02*
X51950952Y28389943D01*
X51950952Y28389943D02*
X51998571Y28437562D01*
X51998571Y28437562D02*
X52093809Y28485181D01*
X52093809Y28485181D02*
X52284285Y28485181D01*
X52284285Y28485181D02*
X52379523Y28437562D01*
X52379523Y28437562D02*
X52427142Y28389943D01*
X52427142Y28389943D02*
X52474761Y28294705D01*
X52474761Y28294705D02*
X52474761Y28247086D01*
X52474761Y28247086D02*
X52427142Y28151848D01*
X52427142Y28151848D02*
X52379523Y28104229D01*
X52379523Y28104229D02*
X52284285Y28056610D01*
X52284285Y28056610D02*
X52093809Y28056610D01*
X52093809Y28056610D02*
X51998571Y28008991D01*
X51998571Y28008991D02*
X51950952Y27961372D01*
X51950952Y27961372D02*
X51903333Y27866134D01*
X51903333Y27866134D02*
X51903333Y27675658D01*
X51903333Y27675658D02*
X51950952Y27580420D01*
X51950952Y27580420D02*
X51998571Y27532800D01*
X51998571Y27532800D02*
X52093809Y27485181D01*
X52093809Y27485181D02*
X52284285Y27485181D01*
X52284285Y27485181D02*
X52379523Y27532800D01*
X52379523Y27532800D02*
X52427142Y27580420D01*
X52427142Y27580420D02*
X52474761Y27675658D01*
X52474761Y27675658D02*
X52474761Y27866134D01*
X52474761Y27866134D02*
X52427142Y27961372D01*
X52427142Y27961372D02*
X52379523Y28008991D01*
X52379523Y28008991D02*
X52284285Y28056610D01*
X53093809Y28485181D02*
X53189047Y28485181D01*
X53189047Y28485181D02*
X53284285Y28437562D01*
X53284285Y28437562D02*
X53331904Y28389943D01*
X53331904Y28389943D02*
X53379523Y28294705D01*
X53379523Y28294705D02*
X53427142Y28104229D01*
X53427142Y28104229D02*
X53427142Y27866134D01*
X53427142Y27866134D02*
X53379523Y27675658D01*
X53379523Y27675658D02*
X53331904Y27580420D01*
X53331904Y27580420D02*
X53284285Y27532800D01*
X53284285Y27532800D02*
X53189047Y27485181D01*
X53189047Y27485181D02*
X53093809Y27485181D01*
X53093809Y27485181D02*
X52998571Y27532800D01*
X52998571Y27532800D02*
X52950952Y27580420D01*
X52950952Y27580420D02*
X52903333Y27675658D01*
X52903333Y27675658D02*
X52855714Y27866134D01*
X52855714Y27866134D02*
X52855714Y28104229D01*
X52855714Y28104229D02*
X52903333Y28294705D01*
X52903333Y28294705D02*
X52950952Y28389943D01*
X52950952Y28389943D02*
X52998571Y28437562D01*
X52998571Y28437562D02*
X53093809Y28485181D01*
X53808095Y28389943D02*
X53855714Y28437562D01*
X53855714Y28437562D02*
X53950952Y28485181D01*
X53950952Y28485181D02*
X54189047Y28485181D01*
X54189047Y28485181D02*
X54284285Y28437562D01*
X54284285Y28437562D02*
X54331904Y28389943D01*
X54331904Y28389943D02*
X54379523Y28294705D01*
X54379523Y28294705D02*
X54379523Y28199467D01*
X54379523Y28199467D02*
X54331904Y28056610D01*
X54331904Y28056610D02*
X53760476Y27485181D01*
X53760476Y27485181D02*
X54379523Y27485181D01*
X54998571Y28485181D02*
X55093809Y28485181D01*
X55093809Y28485181D02*
X55189047Y28437562D01*
X55189047Y28437562D02*
X55236666Y28389943D01*
X55236666Y28389943D02*
X55284285Y28294705D01*
X55284285Y28294705D02*
X55331904Y28104229D01*
X55331904Y28104229D02*
X55331904Y27866134D01*
X55331904Y27866134D02*
X55284285Y27675658D01*
X55284285Y27675658D02*
X55236666Y27580420D01*
X55236666Y27580420D02*
X55189047Y27532800D01*
X55189047Y27532800D02*
X55093809Y27485181D01*
X55093809Y27485181D02*
X54998571Y27485181D01*
X54998571Y27485181D02*
X54903333Y27532800D01*
X54903333Y27532800D02*
X54855714Y27580420D01*
X54855714Y27580420D02*
X54808095Y27675658D01*
X54808095Y27675658D02*
X54760476Y27866134D01*
X54760476Y27866134D02*
X54760476Y28104229D01*
X54760476Y28104229D02*
X54808095Y28294705D01*
X54808095Y28294705D02*
X54855714Y28389943D01*
X54855714Y28389943D02*
X54903333Y28437562D01*
X54903333Y28437562D02*
X54998571Y28485181D01*
X2190714Y52250181D02*
X1619286Y52250181D01*
X1905000Y52250181D02*
X1905000Y53250181D01*
X1905000Y53250181D02*
X1809762Y53107324D01*
X1809762Y53107324D02*
X1714524Y53012086D01*
X1714524Y53012086D02*
X1619286Y52964467D01*
D12*
X49665238Y50878853D02*
X50284285Y50878853D01*
X50284285Y50878853D02*
X49950952Y50497901D01*
X49950952Y50497901D02*
X50093809Y50497901D01*
X50093809Y50497901D02*
X50189047Y50450282D01*
X50189047Y50450282D02*
X50236666Y50402663D01*
X50236666Y50402663D02*
X50284285Y50307425D01*
X50284285Y50307425D02*
X50284285Y50069330D01*
X50284285Y50069330D02*
X50236666Y49974092D01*
X50236666Y49974092D02*
X50189047Y49926472D01*
X50189047Y49926472D02*
X50093809Y49878853D01*
X50093809Y49878853D02*
X49808095Y49878853D01*
X49808095Y49878853D02*
X49712857Y49926472D01*
X49712857Y49926472D02*
X49665238Y49974092D01*
X50665238Y50783615D02*
X50712857Y50831234D01*
X50712857Y50831234D02*
X50808095Y50878853D01*
X50808095Y50878853D02*
X51046190Y50878853D01*
X51046190Y50878853D02*
X51141428Y50831234D01*
X51141428Y50831234D02*
X51189047Y50783615D01*
X51189047Y50783615D02*
X51236666Y50688377D01*
X51236666Y50688377D02*
X51236666Y50593139D01*
X51236666Y50593139D02*
X51189047Y50450282D01*
X51189047Y50450282D02*
X50617619Y49878853D01*
X50617619Y49878853D02*
X51236666Y49878853D01*
X51665238Y50259806D02*
X52427143Y50259806D01*
X52903333Y49878853D02*
X52903333Y50878853D01*
X52903333Y50497901D02*
X52998571Y50545520D01*
X52998571Y50545520D02*
X53189047Y50545520D01*
X53189047Y50545520D02*
X53284285Y50497901D01*
X53284285Y50497901D02*
X53331904Y50450282D01*
X53331904Y50450282D02*
X53379523Y50355044D01*
X53379523Y50355044D02*
X53379523Y50069330D01*
X53379523Y50069330D02*
X53331904Y49974092D01*
X53331904Y49974092D02*
X53284285Y49926472D01*
X53284285Y49926472D02*
X53189047Y49878853D01*
X53189047Y49878853D02*
X52998571Y49878853D01*
X52998571Y49878853D02*
X52903333Y49926472D01*
X53808095Y49878853D02*
X53808095Y50545520D01*
X53808095Y50878853D02*
X53760476Y50831234D01*
X53760476Y50831234D02*
X53808095Y50783615D01*
X53808095Y50783615D02*
X53855714Y50831234D01*
X53855714Y50831234D02*
X53808095Y50878853D01*
X53808095Y50878853D02*
X53808095Y50783615D01*
X54141428Y50545520D02*
X54522380Y50545520D01*
X54284285Y50878853D02*
X54284285Y50021711D01*
X54284285Y50021711D02*
X54331904Y49926472D01*
X54331904Y49926472D02*
X54427142Y49878853D01*
X54427142Y49878853D02*
X54522380Y49878853D01*
X34784284Y48316528D02*
X34879522Y48268909D01*
X34879522Y48268909D02*
X35069998Y48268909D01*
X35069998Y48268909D02*
X35165236Y48316528D01*
X35165236Y48316528D02*
X35212855Y48411767D01*
X35212855Y48411767D02*
X35212855Y48459386D01*
X35212855Y48459386D02*
X35165236Y48554624D01*
X35165236Y48554624D02*
X35069998Y48602243D01*
X35069998Y48602243D02*
X34927141Y48602243D01*
X34927141Y48602243D02*
X34831903Y48649862D01*
X34831903Y48649862D02*
X34784284Y48745100D01*
X34784284Y48745100D02*
X34784284Y48792719D01*
X34784284Y48792719D02*
X34831903Y48887957D01*
X34831903Y48887957D02*
X34927141Y48935576D01*
X34927141Y48935576D02*
X35069998Y48935576D01*
X35069998Y48935576D02*
X35165236Y48887957D01*
X36022379Y48316528D02*
X35927141Y48268909D01*
X35927141Y48268909D02*
X35736665Y48268909D01*
X35736665Y48268909D02*
X35641427Y48316528D01*
X35641427Y48316528D02*
X35593808Y48411767D01*
X35593808Y48411767D02*
X35593808Y48792719D01*
X35593808Y48792719D02*
X35641427Y48887957D01*
X35641427Y48887957D02*
X35736665Y48935576D01*
X35736665Y48935576D02*
X35927141Y48935576D01*
X35927141Y48935576D02*
X36022379Y48887957D01*
X36022379Y48887957D02*
X36069998Y48792719D01*
X36069998Y48792719D02*
X36069998Y48697481D01*
X36069998Y48697481D02*
X35593808Y48602243D01*
X36927141Y48316528D02*
X36831903Y48268909D01*
X36831903Y48268909D02*
X36641427Y48268909D01*
X36641427Y48268909D02*
X36546189Y48316528D01*
X36546189Y48316528D02*
X36498570Y48364148D01*
X36498570Y48364148D02*
X36450951Y48459386D01*
X36450951Y48459386D02*
X36450951Y48745100D01*
X36450951Y48745100D02*
X36498570Y48840338D01*
X36498570Y48840338D02*
X36546189Y48887957D01*
X36546189Y48887957D02*
X36641427Y48935576D01*
X36641427Y48935576D02*
X36831903Y48935576D01*
X36831903Y48935576D02*
X36927141Y48887957D01*
X37498570Y48268909D02*
X37403332Y48316528D01*
X37403332Y48316528D02*
X37355713Y48364148D01*
X37355713Y48364148D02*
X37308094Y48459386D01*
X37308094Y48459386D02*
X37308094Y48745100D01*
X37308094Y48745100D02*
X37355713Y48840338D01*
X37355713Y48840338D02*
X37403332Y48887957D01*
X37403332Y48887957D02*
X37498570Y48935576D01*
X37498570Y48935576D02*
X37641427Y48935576D01*
X37641427Y48935576D02*
X37736665Y48887957D01*
X37736665Y48887957D02*
X37784284Y48840338D01*
X37784284Y48840338D02*
X37831903Y48745100D01*
X37831903Y48745100D02*
X37831903Y48459386D01*
X37831903Y48459386D02*
X37784284Y48364148D01*
X37784284Y48364148D02*
X37736665Y48316528D01*
X37736665Y48316528D02*
X37641427Y48268909D01*
X37641427Y48268909D02*
X37498570Y48268909D01*
X38260475Y48935576D02*
X38260475Y48268909D01*
X38260475Y48840338D02*
X38308094Y48887957D01*
X38308094Y48887957D02*
X38403332Y48935576D01*
X38403332Y48935576D02*
X38546189Y48935576D01*
X38546189Y48935576D02*
X38641427Y48887957D01*
X38641427Y48887957D02*
X38689046Y48792719D01*
X38689046Y48792719D02*
X38689046Y48268909D01*
X39593808Y48268909D02*
X39593808Y49268909D01*
X39593808Y48316528D02*
X39498570Y48268909D01*
X39498570Y48268909D02*
X39308094Y48268909D01*
X39308094Y48268909D02*
X39212856Y48316528D01*
X39212856Y48316528D02*
X39165237Y48364148D01*
X39165237Y48364148D02*
X39117618Y48459386D01*
X39117618Y48459386D02*
X39117618Y48745100D01*
X39117618Y48745100D02*
X39165237Y48840338D01*
X39165237Y48840338D02*
X39212856Y48887957D01*
X39212856Y48887957D02*
X39308094Y48935576D01*
X39308094Y48935576D02*
X39498570Y48935576D01*
X39498570Y48935576D02*
X39593808Y48887957D01*
X40069999Y48649862D02*
X40831904Y48649862D01*
X41736665Y48935576D02*
X41736665Y48126052D01*
X41736665Y48126052D02*
X41689046Y48030814D01*
X41689046Y48030814D02*
X41641427Y47983195D01*
X41641427Y47983195D02*
X41546189Y47935576D01*
X41546189Y47935576D02*
X41403332Y47935576D01*
X41403332Y47935576D02*
X41308094Y47983195D01*
X41736665Y48316528D02*
X41641427Y48268909D01*
X41641427Y48268909D02*
X41450951Y48268909D01*
X41450951Y48268909D02*
X41355713Y48316528D01*
X41355713Y48316528D02*
X41308094Y48364148D01*
X41308094Y48364148D02*
X41260475Y48459386D01*
X41260475Y48459386D02*
X41260475Y48745100D01*
X41260475Y48745100D02*
X41308094Y48840338D01*
X41308094Y48840338D02*
X41355713Y48887957D01*
X41355713Y48887957D02*
X41450951Y48935576D01*
X41450951Y48935576D02*
X41641427Y48935576D01*
X41641427Y48935576D02*
X41736665Y48887957D01*
X42593808Y48316528D02*
X42498570Y48268909D01*
X42498570Y48268909D02*
X42308094Y48268909D01*
X42308094Y48268909D02*
X42212856Y48316528D01*
X42212856Y48316528D02*
X42165237Y48411767D01*
X42165237Y48411767D02*
X42165237Y48792719D01*
X42165237Y48792719D02*
X42212856Y48887957D01*
X42212856Y48887957D02*
X42308094Y48935576D01*
X42308094Y48935576D02*
X42498570Y48935576D01*
X42498570Y48935576D02*
X42593808Y48887957D01*
X42593808Y48887957D02*
X42641427Y48792719D01*
X42641427Y48792719D02*
X42641427Y48697481D01*
X42641427Y48697481D02*
X42165237Y48602243D01*
X43069999Y48935576D02*
X43069999Y48268909D01*
X43069999Y48840338D02*
X43117618Y48887957D01*
X43117618Y48887957D02*
X43212856Y48935576D01*
X43212856Y48935576D02*
X43355713Y48935576D01*
X43355713Y48935576D02*
X43450951Y48887957D01*
X43450951Y48887957D02*
X43498570Y48792719D01*
X43498570Y48792719D02*
X43498570Y48268909D01*
X44355713Y48316528D02*
X44260475Y48268909D01*
X44260475Y48268909D02*
X44069999Y48268909D01*
X44069999Y48268909D02*
X43974761Y48316528D01*
X43974761Y48316528D02*
X43927142Y48411767D01*
X43927142Y48411767D02*
X43927142Y48792719D01*
X43927142Y48792719D02*
X43974761Y48887957D01*
X43974761Y48887957D02*
X44069999Y48935576D01*
X44069999Y48935576D02*
X44260475Y48935576D01*
X44260475Y48935576D02*
X44355713Y48887957D01*
X44355713Y48887957D02*
X44403332Y48792719D01*
X44403332Y48792719D02*
X44403332Y48697481D01*
X44403332Y48697481D02*
X43927142Y48602243D01*
X44831904Y48268909D02*
X44831904Y48935576D01*
X44831904Y48745100D02*
X44879523Y48840338D01*
X44879523Y48840338D02*
X44927142Y48887957D01*
X44927142Y48887957D02*
X45022380Y48935576D01*
X45022380Y48935576D02*
X45117618Y48935576D01*
X45879523Y48268909D02*
X45879523Y48792719D01*
X45879523Y48792719D02*
X45831904Y48887957D01*
X45831904Y48887957D02*
X45736666Y48935576D01*
X45736666Y48935576D02*
X45546190Y48935576D01*
X45546190Y48935576D02*
X45450952Y48887957D01*
X45879523Y48316528D02*
X45784285Y48268909D01*
X45784285Y48268909D02*
X45546190Y48268909D01*
X45546190Y48268909D02*
X45450952Y48316528D01*
X45450952Y48316528D02*
X45403333Y48411767D01*
X45403333Y48411767D02*
X45403333Y48507005D01*
X45403333Y48507005D02*
X45450952Y48602243D01*
X45450952Y48602243D02*
X45546190Y48649862D01*
X45546190Y48649862D02*
X45784285Y48649862D01*
X45784285Y48649862D02*
X45879523Y48697481D01*
X46212857Y48935576D02*
X46593809Y48935576D01*
X46355714Y49268909D02*
X46355714Y48411767D01*
X46355714Y48411767D02*
X46403333Y48316528D01*
X46403333Y48316528D02*
X46498571Y48268909D01*
X46498571Y48268909D02*
X46593809Y48268909D01*
X46927143Y48268909D02*
X46927143Y48935576D01*
X46927143Y49268909D02*
X46879524Y49221290D01*
X46879524Y49221290D02*
X46927143Y49173671D01*
X46927143Y49173671D02*
X46974762Y49221290D01*
X46974762Y49221290D02*
X46927143Y49268909D01*
X46927143Y49268909D02*
X46927143Y49173671D01*
X47546190Y48268909D02*
X47450952Y48316528D01*
X47450952Y48316528D02*
X47403333Y48364148D01*
X47403333Y48364148D02*
X47355714Y48459386D01*
X47355714Y48459386D02*
X47355714Y48745100D01*
X47355714Y48745100D02*
X47403333Y48840338D01*
X47403333Y48840338D02*
X47450952Y48887957D01*
X47450952Y48887957D02*
X47546190Y48935576D01*
X47546190Y48935576D02*
X47689047Y48935576D01*
X47689047Y48935576D02*
X47784285Y48887957D01*
X47784285Y48887957D02*
X47831904Y48840338D01*
X47831904Y48840338D02*
X47879523Y48745100D01*
X47879523Y48745100D02*
X47879523Y48459386D01*
X47879523Y48459386D02*
X47831904Y48364148D01*
X47831904Y48364148D02*
X47784285Y48316528D01*
X47784285Y48316528D02*
X47689047Y48268909D01*
X47689047Y48268909D02*
X47546190Y48268909D01*
X48308095Y48935576D02*
X48308095Y48268909D01*
X48308095Y48840338D02*
X48355714Y48887957D01*
X48355714Y48887957D02*
X48450952Y48935576D01*
X48450952Y48935576D02*
X48593809Y48935576D01*
X48593809Y48935576D02*
X48689047Y48887957D01*
X48689047Y48887957D02*
X48736666Y48792719D01*
X48736666Y48792719D02*
X48736666Y48268909D01*
X49260476Y48316528D02*
X49260476Y48268909D01*
X49260476Y48268909D02*
X49212857Y48173671D01*
X49212857Y48173671D02*
X49165238Y48126052D01*
X50831904Y48316528D02*
X50736666Y48268909D01*
X50736666Y48268909D02*
X50546190Y48268909D01*
X50546190Y48268909D02*
X50450952Y48316528D01*
X50450952Y48316528D02*
X50403333Y48411767D01*
X50403333Y48411767D02*
X50403333Y48792719D01*
X50403333Y48792719D02*
X50450952Y48887957D01*
X50450952Y48887957D02*
X50546190Y48935576D01*
X50546190Y48935576D02*
X50736666Y48935576D01*
X50736666Y48935576D02*
X50831904Y48887957D01*
X50831904Y48887957D02*
X50879523Y48792719D01*
X50879523Y48792719D02*
X50879523Y48697481D01*
X50879523Y48697481D02*
X50403333Y48602243D01*
X51308095Y48935576D02*
X51308095Y48268909D01*
X51308095Y48840338D02*
X51355714Y48887957D01*
X51355714Y48887957D02*
X51450952Y48935576D01*
X51450952Y48935576D02*
X51593809Y48935576D01*
X51593809Y48935576D02*
X51689047Y48887957D01*
X51689047Y48887957D02*
X51736666Y48792719D01*
X51736666Y48792719D02*
X51736666Y48268909D01*
X52212857Y48268909D02*
X52212857Y49268909D01*
X52641428Y48268909D02*
X52641428Y48792719D01*
X52641428Y48792719D02*
X52593809Y48887957D01*
X52593809Y48887957D02*
X52498571Y48935576D01*
X52498571Y48935576D02*
X52355714Y48935576D01*
X52355714Y48935576D02*
X52260476Y48887957D01*
X52260476Y48887957D02*
X52212857Y48840338D01*
X53546190Y48268909D02*
X53546190Y48792719D01*
X53546190Y48792719D02*
X53498571Y48887957D01*
X53498571Y48887957D02*
X53403333Y48935576D01*
X53403333Y48935576D02*
X53212857Y48935576D01*
X53212857Y48935576D02*
X53117619Y48887957D01*
X53546190Y48316528D02*
X53450952Y48268909D01*
X53450952Y48268909D02*
X53212857Y48268909D01*
X53212857Y48268909D02*
X53117619Y48316528D01*
X53117619Y48316528D02*
X53070000Y48411767D01*
X53070000Y48411767D02*
X53070000Y48507005D01*
X53070000Y48507005D02*
X53117619Y48602243D01*
X53117619Y48602243D02*
X53212857Y48649862D01*
X53212857Y48649862D02*
X53450952Y48649862D01*
X53450952Y48649862D02*
X53546190Y48697481D01*
X54022381Y48935576D02*
X54022381Y48268909D01*
X54022381Y48840338D02*
X54070000Y48887957D01*
X54070000Y48887957D02*
X54165238Y48935576D01*
X54165238Y48935576D02*
X54308095Y48935576D01*
X54308095Y48935576D02*
X54403333Y48887957D01*
X54403333Y48887957D02*
X54450952Y48792719D01*
X54450952Y48792719D02*
X54450952Y48268909D01*
X55355714Y48316528D02*
X55260476Y48268909D01*
X55260476Y48268909D02*
X55070000Y48268909D01*
X55070000Y48268909D02*
X54974762Y48316528D01*
X54974762Y48316528D02*
X54927143Y48364148D01*
X54927143Y48364148D02*
X54879524Y48459386D01*
X54879524Y48459386D02*
X54879524Y48745100D01*
X54879524Y48745100D02*
X54927143Y48840338D01*
X54927143Y48840338D02*
X54974762Y48887957D01*
X54974762Y48887957D02*
X55070000Y48935576D01*
X55070000Y48935576D02*
X55260476Y48935576D01*
X55260476Y48935576D02*
X55355714Y48887957D01*
X56165238Y48316528D02*
X56070000Y48268909D01*
X56070000Y48268909D02*
X55879524Y48268909D01*
X55879524Y48268909D02*
X55784286Y48316528D01*
X55784286Y48316528D02*
X55736667Y48411767D01*
X55736667Y48411767D02*
X55736667Y48792719D01*
X55736667Y48792719D02*
X55784286Y48887957D01*
X55784286Y48887957D02*
X55879524Y48935576D01*
X55879524Y48935576D02*
X56070000Y48935576D01*
X56070000Y48935576D02*
X56165238Y48887957D01*
X56165238Y48887957D02*
X56212857Y48792719D01*
X56212857Y48792719D02*
X56212857Y48697481D01*
X56212857Y48697481D02*
X55736667Y48602243D01*
X57070000Y48268909D02*
X57070000Y49268909D01*
X57070000Y48316528D02*
X56974762Y48268909D01*
X56974762Y48268909D02*
X56784286Y48268909D01*
X56784286Y48268909D02*
X56689048Y48316528D01*
X56689048Y48316528D02*
X56641429Y48364148D01*
X56641429Y48364148D02*
X56593810Y48459386D01*
X56593810Y48459386D02*
X56593810Y48745100D01*
X56593810Y48745100D02*
X56641429Y48840338D01*
X56641429Y48840338D02*
X56689048Y48887957D01*
X56689048Y48887957D02*
X56784286Y48935576D01*
X56784286Y48935576D02*
X56974762Y48935576D01*
X56974762Y48935576D02*
X57070000Y48887957D01*
X58308096Y48268909D02*
X58308096Y48935576D01*
X58308096Y48840338D02*
X58355715Y48887957D01*
X58355715Y48887957D02*
X58450953Y48935576D01*
X58450953Y48935576D02*
X58593810Y48935576D01*
X58593810Y48935576D02*
X58689048Y48887957D01*
X58689048Y48887957D02*
X58736667Y48792719D01*
X58736667Y48792719D02*
X58736667Y48268909D01*
X58736667Y48792719D02*
X58784286Y48887957D01*
X58784286Y48887957D02*
X58879524Y48935576D01*
X58879524Y48935576D02*
X59022381Y48935576D01*
X59022381Y48935576D02*
X59117620Y48887957D01*
X59117620Y48887957D02*
X59165239Y48792719D01*
X59165239Y48792719D02*
X59165239Y48268909D01*
X59641429Y48268909D02*
X59641429Y48935576D01*
X59641429Y49268909D02*
X59593810Y49221290D01*
X59593810Y49221290D02*
X59641429Y49173671D01*
X59641429Y49173671D02*
X59689048Y49221290D01*
X59689048Y49221290D02*
X59641429Y49268909D01*
X59641429Y49268909D02*
X59641429Y49173671D01*
X60546190Y48316528D02*
X60450952Y48268909D01*
X60450952Y48268909D02*
X60260476Y48268909D01*
X60260476Y48268909D02*
X60165238Y48316528D01*
X60165238Y48316528D02*
X60117619Y48364148D01*
X60117619Y48364148D02*
X60070000Y48459386D01*
X60070000Y48459386D02*
X60070000Y48745100D01*
X60070000Y48745100D02*
X60117619Y48840338D01*
X60117619Y48840338D02*
X60165238Y48887957D01*
X60165238Y48887957D02*
X60260476Y48935576D01*
X60260476Y48935576D02*
X60450952Y48935576D01*
X60450952Y48935576D02*
X60546190Y48887957D01*
X60974762Y48268909D02*
X60974762Y48935576D01*
X60974762Y48745100D02*
X61022381Y48840338D01*
X61022381Y48840338D02*
X61070000Y48887957D01*
X61070000Y48887957D02*
X61165238Y48935576D01*
X61165238Y48935576D02*
X61260476Y48935576D01*
X61736667Y48268909D02*
X61641429Y48316528D01*
X61641429Y48316528D02*
X61593810Y48364148D01*
X61593810Y48364148D02*
X61546191Y48459386D01*
X61546191Y48459386D02*
X61546191Y48745100D01*
X61546191Y48745100D02*
X61593810Y48840338D01*
X61593810Y48840338D02*
X61641429Y48887957D01*
X61641429Y48887957D02*
X61736667Y48935576D01*
X61736667Y48935576D02*
X61879524Y48935576D01*
X61879524Y48935576D02*
X61974762Y48887957D01*
X61974762Y48887957D02*
X62022381Y48840338D01*
X62022381Y48840338D02*
X62070000Y48745100D01*
X62070000Y48745100D02*
X62070000Y48459386D01*
X62070000Y48459386D02*
X62022381Y48364148D01*
X62022381Y48364148D02*
X61974762Y48316528D01*
X61974762Y48316528D02*
X61879524Y48268909D01*
X61879524Y48268909D02*
X61736667Y48268909D01*
X62498572Y48935576D02*
X62498572Y47935576D01*
X62498572Y48887957D02*
X62593810Y48935576D01*
X62593810Y48935576D02*
X62784286Y48935576D01*
X62784286Y48935576D02*
X62879524Y48887957D01*
X62879524Y48887957D02*
X62927143Y48840338D01*
X62927143Y48840338D02*
X62974762Y48745100D01*
X62974762Y48745100D02*
X62974762Y48459386D01*
X62974762Y48459386D02*
X62927143Y48364148D01*
X62927143Y48364148D02*
X62879524Y48316528D01*
X62879524Y48316528D02*
X62784286Y48268909D01*
X62784286Y48268909D02*
X62593810Y48268909D01*
X62593810Y48268909D02*
X62498572Y48316528D01*
X63403334Y48268909D02*
X63403334Y48935576D01*
X63403334Y48745100D02*
X63450953Y48840338D01*
X63450953Y48840338D02*
X63498572Y48887957D01*
X63498572Y48887957D02*
X63593810Y48935576D01*
X63593810Y48935576D02*
X63689048Y48935576D01*
X64165239Y48268909D02*
X64070001Y48316528D01*
X64070001Y48316528D02*
X64022382Y48364148D01*
X64022382Y48364148D02*
X63974763Y48459386D01*
X63974763Y48459386D02*
X63974763Y48745100D01*
X63974763Y48745100D02*
X64022382Y48840338D01*
X64022382Y48840338D02*
X64070001Y48887957D01*
X64070001Y48887957D02*
X64165239Y48935576D01*
X64165239Y48935576D02*
X64308096Y48935576D01*
X64308096Y48935576D02*
X64403334Y48887957D01*
X64403334Y48887957D02*
X64450953Y48840338D01*
X64450953Y48840338D02*
X64498572Y48745100D01*
X64498572Y48745100D02*
X64498572Y48459386D01*
X64498572Y48459386D02*
X64450953Y48364148D01*
X64450953Y48364148D02*
X64403334Y48316528D01*
X64403334Y48316528D02*
X64308096Y48268909D01*
X64308096Y48268909D02*
X64165239Y48268909D01*
X65355715Y48316528D02*
X65260477Y48268909D01*
X65260477Y48268909D02*
X65070001Y48268909D01*
X65070001Y48268909D02*
X64974763Y48316528D01*
X64974763Y48316528D02*
X64927144Y48364148D01*
X64927144Y48364148D02*
X64879525Y48459386D01*
X64879525Y48459386D02*
X64879525Y48745100D01*
X64879525Y48745100D02*
X64927144Y48840338D01*
X64927144Y48840338D02*
X64974763Y48887957D01*
X64974763Y48887957D02*
X65070001Y48935576D01*
X65070001Y48935576D02*
X65260477Y48935576D01*
X65260477Y48935576D02*
X65355715Y48887957D01*
X66165239Y48316528D02*
X66070001Y48268909D01*
X66070001Y48268909D02*
X65879525Y48268909D01*
X65879525Y48268909D02*
X65784287Y48316528D01*
X65784287Y48316528D02*
X65736668Y48411767D01*
X65736668Y48411767D02*
X65736668Y48792719D01*
X65736668Y48792719D02*
X65784287Y48887957D01*
X65784287Y48887957D02*
X65879525Y48935576D01*
X65879525Y48935576D02*
X66070001Y48935576D01*
X66070001Y48935576D02*
X66165239Y48887957D01*
X66165239Y48887957D02*
X66212858Y48792719D01*
X66212858Y48792719D02*
X66212858Y48697481D01*
X66212858Y48697481D02*
X65736668Y48602243D01*
X66593811Y48316528D02*
X66689049Y48268909D01*
X66689049Y48268909D02*
X66879525Y48268909D01*
X66879525Y48268909D02*
X66974763Y48316528D01*
X66974763Y48316528D02*
X67022382Y48411767D01*
X67022382Y48411767D02*
X67022382Y48459386D01*
X67022382Y48459386D02*
X66974763Y48554624D01*
X66974763Y48554624D02*
X66879525Y48602243D01*
X66879525Y48602243D02*
X66736668Y48602243D01*
X66736668Y48602243D02*
X66641430Y48649862D01*
X66641430Y48649862D02*
X66593811Y48745100D01*
X66593811Y48745100D02*
X66593811Y48792719D01*
X66593811Y48792719D02*
X66641430Y48887957D01*
X66641430Y48887957D02*
X66736668Y48935576D01*
X66736668Y48935576D02*
X66879525Y48935576D01*
X66879525Y48935576D02*
X66974763Y48887957D01*
X67403335Y48316528D02*
X67498573Y48268909D01*
X67498573Y48268909D02*
X67689049Y48268909D01*
X67689049Y48268909D02*
X67784287Y48316528D01*
X67784287Y48316528D02*
X67831906Y48411767D01*
X67831906Y48411767D02*
X67831906Y48459386D01*
X67831906Y48459386D02*
X67784287Y48554624D01*
X67784287Y48554624D02*
X67689049Y48602243D01*
X67689049Y48602243D02*
X67546192Y48602243D01*
X67546192Y48602243D02*
X67450954Y48649862D01*
X67450954Y48649862D02*
X67403335Y48745100D01*
X67403335Y48745100D02*
X67403335Y48792719D01*
X67403335Y48792719D02*
X67450954Y48887957D01*
X67450954Y48887957D02*
X67546192Y48935576D01*
X67546192Y48935576D02*
X67689049Y48935576D01*
X67689049Y48935576D02*
X67784287Y48887957D01*
X68403335Y48268909D02*
X68308097Y48316528D01*
X68308097Y48316528D02*
X68260478Y48364148D01*
X68260478Y48364148D02*
X68212859Y48459386D01*
X68212859Y48459386D02*
X68212859Y48745100D01*
X68212859Y48745100D02*
X68260478Y48840338D01*
X68260478Y48840338D02*
X68308097Y48887957D01*
X68308097Y48887957D02*
X68403335Y48935576D01*
X68403335Y48935576D02*
X68546192Y48935576D01*
X68546192Y48935576D02*
X68641430Y48887957D01*
X68641430Y48887957D02*
X68689049Y48840338D01*
X68689049Y48840338D02*
X68736668Y48745100D01*
X68736668Y48745100D02*
X68736668Y48459386D01*
X68736668Y48459386D02*
X68689049Y48364148D01*
X68689049Y48364148D02*
X68641430Y48316528D01*
X68641430Y48316528D02*
X68546192Y48268909D01*
X68546192Y48268909D02*
X68403335Y48268909D01*
X69165240Y48268909D02*
X69165240Y48935576D01*
X69165240Y48745100D02*
X69212859Y48840338D01*
X69212859Y48840338D02*
X69260478Y48887957D01*
X69260478Y48887957D02*
X69355716Y48935576D01*
X69355716Y48935576D02*
X69450954Y48935576D01*
D13*
X51308095Y24042948D02*
X51308095Y23233425D01*
X51308095Y23233425D02*
X51355714Y23138187D01*
X51355714Y23138187D02*
X51403333Y23090567D01*
X51403333Y23090567D02*
X51498571Y23042948D01*
X51498571Y23042948D02*
X51689047Y23042948D01*
X51689047Y23042948D02*
X51784285Y23090567D01*
X51784285Y23090567D02*
X51831904Y23138187D01*
X51831904Y23138187D02*
X51879523Y23233425D01*
X51879523Y23233425D02*
X51879523Y24042948D01*
X52879523Y23042948D02*
X52308095Y23042948D01*
X52593809Y23042948D02*
X52593809Y24042948D01*
X52593809Y24042948D02*
X52498571Y23900091D01*
X52498571Y23900091D02*
X52403333Y23804853D01*
X52403333Y23804853D02*
X52308095Y23757234D01*
D14*
X35560000Y43180000D02*
X36195000Y43815000D01*
X35560000Y42545000D02*
X35560000Y43180000D01*
X35560000Y42545000D02*
X35560000Y10795000D01*
X35560000Y10795000D02*
X68580000Y10795000D01*
X36195000Y43815000D02*
X36830000Y43815000D01*
X68580000Y43815000D02*
X36830000Y43815000D01*
X68580000Y10795000D02*
X68580000Y43815000D01*
D15*
X27171400Y34523000D02*
X27171400Y35327000D01*
X27211400Y34292000D02*
X27211400Y35558000D01*
X27251400Y34123000D02*
X27251400Y35727000D01*
X27291400Y33985000D02*
X27291400Y35865000D01*
X27331400Y33866000D02*
X27331400Y35984000D01*
X27371400Y33760000D02*
X27371400Y36090000D01*
X27411400Y33663000D02*
X27411400Y36187000D01*
X27451400Y33575000D02*
X27451400Y36275000D01*
X27491400Y33493000D02*
X27491400Y36357000D01*
X27531400Y33416000D02*
X27531400Y36434000D01*
X27571400Y33344000D02*
X27571400Y36506000D01*
X27611400Y33275000D02*
X27611400Y36575000D01*
X27651400Y33211000D02*
X27651400Y36639000D01*
X27691400Y33149000D02*
X27691400Y36701000D01*
X27731400Y33091000D02*
X27731400Y36759000D01*
X27771400Y33035000D02*
X27771400Y36815000D01*
X27811400Y32981000D02*
X27811400Y36869000D01*
X27851400Y32930000D02*
X27851400Y36920000D01*
X27891400Y32881000D02*
X27891400Y36969000D01*
X27931400Y32833000D02*
X27931400Y37017000D01*
X27971400Y32788000D02*
X27971400Y37062000D01*
X28011400Y32743000D02*
X28011400Y37107000D01*
X28051400Y32701000D02*
X28051400Y37149000D01*
X28091400Y32660000D02*
X28091400Y37190000D01*
X28131400Y35965000D02*
X28131400Y37230000D01*
X28131400Y32620000D02*
X28131400Y33885000D01*
X28171400Y35965000D02*
X28171400Y37268000D01*
X28171400Y32582000D02*
X28171400Y33885000D01*
X28211400Y35965000D02*
X28211400Y37305000D01*
X28211400Y32545000D02*
X28211400Y33885000D01*
X28251400Y35965000D02*
X28251400Y37341000D01*
X28251400Y32509000D02*
X28251400Y33885000D01*
X28291400Y35965000D02*
X28291400Y37375000D01*
X28291400Y32475000D02*
X28291400Y33885000D01*
X28331400Y35965000D02*
X28331400Y37409000D01*
X28331400Y32441000D02*
X28331400Y33885000D01*
X28371400Y35965000D02*
X28371400Y37441000D01*
X28371400Y32409000D02*
X28371400Y33885000D01*
X28411400Y35965000D02*
X28411400Y37473000D01*
X28411400Y32377000D02*
X28411400Y33885000D01*
X28451400Y35965000D02*
X28451400Y37503000D01*
X28451400Y32347000D02*
X28451400Y33885000D01*
X28491400Y35965000D02*
X28491400Y37532000D01*
X28491400Y32318000D02*
X28491400Y33885000D01*
X28531400Y35965000D02*
X28531400Y37561000D01*
X28531400Y32289000D02*
X28531400Y33885000D01*
X28571400Y35965000D02*
X28571400Y37589000D01*
X28571400Y32261000D02*
X28571400Y33885000D01*
X28611400Y35965000D02*
X28611400Y37615000D01*
X28611400Y32235000D02*
X28611400Y33885000D01*
X28651400Y35965000D02*
X28651400Y37641000D01*
X28651400Y32209000D02*
X28651400Y33885000D01*
X28691400Y35965000D02*
X28691400Y37667000D01*
X28691400Y32183000D02*
X28691400Y33885000D01*
X28731400Y35965000D02*
X28731400Y37691000D01*
X28731400Y32159000D02*
X28731400Y33885000D01*
X28771400Y35965000D02*
X28771400Y37715000D01*
X28771400Y32135000D02*
X28771400Y33885000D01*
X28811400Y35965000D02*
X28811400Y37737000D01*
X28811400Y32113000D02*
X28811400Y33885000D01*
X28851400Y35965000D02*
X28851400Y37759000D01*
X28851400Y32091000D02*
X28851400Y33885000D01*
X28891400Y35965000D02*
X28891400Y37781000D01*
X28891400Y32069000D02*
X28891400Y33885000D01*
X28931400Y35965000D02*
X28931400Y37801000D01*
X28931400Y32049000D02*
X28931400Y33885000D01*
X28971400Y35965000D02*
X28971400Y37821000D01*
X28971400Y32029000D02*
X28971400Y33885000D01*
X29011400Y35965000D02*
X29011400Y37841000D01*
X29011400Y32009000D02*
X29011400Y33885000D01*
X29051400Y35965000D02*
X29051400Y37859000D01*
X29051400Y31991000D02*
X29051400Y33885000D01*
X29091400Y35965000D02*
X29091400Y37877000D01*
X29091400Y31973000D02*
X29091400Y33885000D01*
X29131400Y35965000D02*
X29131400Y37895000D01*
X29131400Y31955000D02*
X29131400Y33885000D01*
X29171400Y35965000D02*
X29171400Y37911000D01*
X29171400Y31939000D02*
X29171400Y33885000D01*
X29211400Y35965000D02*
X29211400Y37927000D01*
X29211400Y31923000D02*
X29211400Y33885000D01*
X29251400Y35965000D02*
X29251400Y37943000D01*
X29251400Y31907000D02*
X29251400Y33885000D01*
X29291400Y35965000D02*
X29291400Y37958000D01*
X29291400Y31892000D02*
X29291400Y33885000D01*
X29331400Y35965000D02*
X29331400Y37972000D01*
X29331400Y31878000D02*
X29331400Y33885000D01*
X29371400Y35965000D02*
X29371400Y37986000D01*
X29371400Y31864000D02*
X29371400Y33885000D01*
X29411400Y35965000D02*
X29411400Y37999000D01*
X29411400Y31851000D02*
X29411400Y33885000D01*
X29451400Y35965000D02*
X29451400Y38011000D01*
X29451400Y31839000D02*
X29451400Y33885000D01*
X29491400Y35965000D02*
X29491400Y38023000D01*
X29491400Y31827000D02*
X29491400Y33885000D01*
X29531400Y35965000D02*
X29531400Y38035000D01*
X29531400Y31815000D02*
X29531400Y33885000D01*
X29571400Y35965000D02*
X29571400Y38046000D01*
X29571400Y31804000D02*
X29571400Y33885000D01*
X29611400Y35965000D02*
X29611400Y38056000D01*
X29611400Y31794000D02*
X29611400Y33885000D01*
X29651400Y35965000D02*
X29651400Y38066000D01*
X29651400Y31784000D02*
X29651400Y33885000D01*
X29691400Y35965000D02*
X29691400Y38075000D01*
X29691400Y31775000D02*
X29691400Y33885000D01*
X29732400Y35965000D02*
X29732400Y38084000D01*
X29732400Y31766000D02*
X29732400Y33885000D01*
X29772400Y35965000D02*
X29772400Y38092000D01*
X29772400Y31758000D02*
X29772400Y33885000D01*
X29812400Y35965000D02*
X29812400Y38100000D01*
X29812400Y31750000D02*
X29812400Y33885000D01*
X29852400Y35965000D02*
X29852400Y38107000D01*
X29852400Y31743000D02*
X29852400Y33885000D01*
X29892400Y35965000D02*
X29892400Y38114000D01*
X29892400Y31736000D02*
X29892400Y33885000D01*
X29932400Y35965000D02*
X29932400Y38120000D01*
X29932400Y31730000D02*
X29932400Y33885000D01*
X29972400Y35965000D02*
X29972400Y38126000D01*
X29972400Y31724000D02*
X29972400Y33885000D01*
X30012400Y35965000D02*
X30012400Y38131000D01*
X30012400Y31719000D02*
X30012400Y33885000D01*
X30052400Y35965000D02*
X30052400Y38136000D01*
X30052400Y31714000D02*
X30052400Y33885000D01*
X30092400Y35965000D02*
X30092400Y38140000D01*
X30092400Y31710000D02*
X30092400Y33885000D01*
X30132400Y35965000D02*
X30132400Y38143000D01*
X30132400Y31707000D02*
X30132400Y33885000D01*
X30172400Y35965000D02*
X30172400Y38147000D01*
X30172400Y31703000D02*
X30172400Y33885000D01*
X30212400Y31701000D02*
X30212400Y38149000D01*
X30252400Y31698000D02*
X30252400Y38152000D01*
X30292400Y31697000D02*
X30292400Y38153000D01*
X30332400Y31695000D02*
X30332400Y38155000D01*
X30372400Y31695000D02*
X30372400Y38155000D01*
X30412400Y31695000D02*
X30412400Y38155000D01*
X33597641Y32771000D02*
X33597641Y33401000D01*
X33912641Y33086000D02*
X33282641Y33086000D01*
X33682400Y34925000D02*
G75*
G02*
X27142400Y34925000I-3270000J0D01*
G01*
X27142400Y34925000D02*
G75*
G02*
X33682400Y34925000I3270000J0D01*
G01*
X69065000Y30575000D02*
X69690000Y30575000D01*
X69065000Y26535000D02*
X69065000Y30575000D01*
X69065000Y26535000D02*
X69690000Y26535000D01*
X71280000Y30575000D02*
X71905000Y30575000D01*
X71280000Y26535000D02*
X71905000Y26535000D01*
X71905000Y26535000D02*
X71905000Y30575000D01*
X32235000Y30595000D02*
X32235000Y26555000D01*
X32860000Y30595000D02*
X32235000Y30595000D01*
X32860000Y26555000D02*
X32235000Y26555000D01*
X35075000Y30595000D02*
X34450000Y30595000D01*
X35075000Y30595000D02*
X35075000Y26555000D01*
X35075000Y26555000D02*
X34450000Y26555000D01*
D16*
X36830000Y42545000D03*
D17*
X39370000Y42545000D03*
X41910000Y42545000D03*
X44450000Y42545000D03*
X46990000Y42545000D03*
X49530000Y42545000D03*
X52070000Y42545000D03*
X54610000Y42545000D03*
X57150000Y42545000D03*
X59690000Y42545000D03*
X62230000Y42545000D03*
X64770000Y42545000D03*
X67310000Y42545000D03*
X36830000Y40005000D03*
X39370000Y40005000D03*
X41910000Y40005000D03*
X44450000Y40005000D03*
X46990000Y40005000D03*
X49530000Y40005000D03*
X52070000Y40005000D03*
X54610000Y40005000D03*
X57150000Y40005000D03*
X59690000Y40005000D03*
X62230000Y40005000D03*
X64770000Y40005000D03*
X67310000Y40005000D03*
X36830000Y37465000D03*
X39370000Y37465000D03*
X41910000Y37465000D03*
X44450000Y37465000D03*
X46990000Y37465000D03*
X49530000Y37465000D03*
X52070000Y37465000D03*
X54610000Y37465000D03*
X57150000Y37465000D03*
X59690000Y37465000D03*
X62230000Y37465000D03*
X64770000Y37465000D03*
X67310000Y37465000D03*
X36830000Y34925000D03*
X39370000Y34925000D03*
X41910000Y34925000D03*
X64770000Y34925000D03*
X67310000Y34925000D03*
X36830000Y32385000D03*
X39370000Y32385000D03*
X41910000Y32385000D03*
X64770000Y32385000D03*
X67310000Y32385000D03*
X36830000Y29845000D03*
X39370000Y29845000D03*
X41910000Y29845000D03*
X64770000Y29845000D03*
X67310000Y29845000D03*
X36830000Y27305000D03*
X39370000Y27305000D03*
X41910000Y27305000D03*
X62230000Y27305000D03*
X64770000Y27305000D03*
X67310000Y27305000D03*
X36830000Y24765000D03*
X39370000Y24765000D03*
X41910000Y24765000D03*
X64770000Y24765000D03*
X67310000Y24765000D03*
X36830000Y22225000D03*
X39370000Y22225000D03*
X41910000Y22225000D03*
X64770000Y22225000D03*
X67310000Y22225000D03*
X36830000Y19685000D03*
X39370000Y19685000D03*
X41910000Y19685000D03*
X64770000Y19685000D03*
X67310000Y19685000D03*
X36830000Y17145000D03*
X39370000Y17145000D03*
X41910000Y17145000D03*
X44450000Y17145000D03*
X46990000Y17145000D03*
X49530000Y17145000D03*
X52070000Y17145000D03*
X54610000Y17145000D03*
X57150000Y17145000D03*
X59690000Y17145000D03*
X62230000Y17145000D03*
X64770000Y17145000D03*
X67310000Y17145000D03*
X36830000Y14605000D03*
X39370000Y14605000D03*
X41910000Y14605000D03*
X44450000Y14605000D03*
X46990000Y14605000D03*
X49530000Y14605000D03*
X52070000Y14605000D03*
X54610000Y14605000D03*
X57150000Y14605000D03*
X59690000Y14605000D03*
X62230000Y14605000D03*
X64770000Y14605000D03*
X67310000Y14605000D03*
X36830000Y12065000D03*
X39370000Y12065000D03*
X41910000Y12065000D03*
X44450000Y12065000D03*
X46990000Y12065000D03*
X49530000Y12065000D03*
X52070000Y12065000D03*
X54610000Y12065000D03*
X57150000Y12065000D03*
X59690000Y12065000D03*
X62230000Y12065000D03*
X64770000Y12065000D03*
X67310000Y12065000D03*
M02*
